<svg width="160" height="24" viewBox="0 0 160 24" fill="none" xmlns="http://www.w3.org/2000/svg">
<g clip-path="url(#clip0_3_37)">
<path d="M7.95342 21.1394C4.89585 21.1304 2.2547 19.458 0.987289 16.2895C-0.280125 13.121 0.108917 9.16314 1.74362 5.61504C4.80119 5.62409 7.44234 7.29648 8.70975 10.465C9.97717 13.6335 9.58813 17.5913 7.95342 21.1394Z" fill="white"/>
<path d="M7.95342 21.1394C4.89585 21.1304 2.2547 19.458 0.987289 16.2895C-0.280125 13.121 0.108917 9.16314 1.74362 5.61504C4.80119 5.62409 7.44234 7.29648 8.70975 10.465C9.97717 13.6335 9.58813 17.5913 7.95342 21.1394Z" fill="url(#paint0_radial_3_37)"/>
<g style="mix-blend-mode:hard-light">
<path d="M7.95342 21.1394C4.89585 21.1304 2.2547 19.458 0.987289 16.2895C-0.280125 13.121 0.108917 9.16314 1.74362 5.61504C4.80119 5.62409 7.44234 7.29648 8.70975 10.465C9.97717 13.6335 9.58813 17.5913 7.95342 21.1394Z" fill="black" fill-opacity="0.5"/>
</g>
<path style="mix-blend-mode:hard-light" d="M7.95342 21.1394C4.89585 21.1304 2.2547 19.458 0.987289 16.2895C-0.280125 13.121 0.108917 9.16314 1.74362 5.61504C4.80119 5.62409 7.44234 7.29648 8.70975 10.465C9.97717 13.6335 9.58813 17.5913 7.95342 21.1394Z" fill="url(#paint1_linear_3_37)" fill-opacity="0.5"/>
<path d="M7.9354 21.1112C4.89702 21.0957 2.27411 19.4306 1.01347 16.279C-0.248373 13.1244 0.135614 9.18218 1.76165 5.64327C4.80004 5.65882 7.42295 7.32385 8.68359 10.4755C9.94543 13.63 9.56144 17.5723 7.9354 21.1112Z" stroke="url(#paint2_linear_3_37)" stroke-opacity="0.05" stroke-width="0.056338"/>
<path d="M7.31038 21.2574C11.3543 20.2215 14.8836 17.3754 16.6285 13.2361C18.3735 9.09671 17.9448 4.58749 15.8598 0.976291C11.8159 2.01214 8.2866 4.85826 6.54167 8.99762C4.79674 13.137 5.2254 17.6462 7.31038 21.2574Z" fill="white"/>
<path d="M7.31038 21.2574C11.3543 20.2215 14.8836 17.3754 16.6285 13.2361C18.3735 9.09671 17.9448 4.58749 15.8598 0.976291C11.8159 2.01214 8.2866 4.85826 6.54167 8.99762C4.79674 13.137 5.2254 17.6462 7.31038 21.2574Z" fill="url(#paint3_radial_3_37)"/>
<path d="M16.6025 13.2251C14.8642 17.349 11.3512 20.1866 7.32412 21.2248C5.25258 17.624 4.82927 13.1324 6.56765 9.00855C8.30604 4.88472 11.819 2.04706 15.8461 1.00889C17.9176 4.60967 18.3409 9.10131 16.6025 13.2251Z" stroke="url(#paint4_linear_3_37)" stroke-opacity="0.05" stroke-width="0.056338"/>
<path d="M7.23367 21.2069C9.78905 23.2373 13.2102 23.9506 16.5772 22.8141C19.9441 21.6775 22.5058 18.9445 23.7304 15.6382C21.175 13.6078 17.7538 12.8944 14.3869 14.031C11.0199 15.1676 8.45821 17.9006 7.23367 21.2069Z" fill="white"/>
<path d="M7.23367 21.2069C9.78905 23.2373 13.2102 23.9506 16.5772 22.8141C19.9441 21.6775 22.5058 18.9445 23.7304 15.6382C21.175 13.6078 17.7538 12.8944 14.3869 14.031C11.0199 15.1676 8.45821 17.9006 7.23367 21.2069Z" fill="url(#paint5_radial_3_37)"/>
<g style="mix-blend-mode:hard-light">
<path d="M7.23367 21.2069C9.78905 23.2373 13.2102 23.9506 16.5772 22.8141C19.9441 21.6775 22.5058 18.9445 23.7304 15.6382C21.175 13.6078 17.7538 12.8944 14.3869 14.031C11.0199 15.1676 8.45821 17.9006 7.23367 21.2069Z" fill="black" fill-opacity="0.2"/>
</g>
<path style="mix-blend-mode:hard-light" d="M7.23367 21.2069C9.78905 23.2373 13.2102 23.9506 16.5772 22.8141C19.9441 21.6775 22.5058 18.9445 23.7304 15.6382C21.175 13.6078 17.7538 12.8944 14.3869 14.031C11.0199 15.1676 8.45821 17.9006 7.23367 21.2069Z" fill="url(#paint6_linear_3_37)" fill-opacity="0.5"/>
<path d="M16.5682 22.7874C13.2176 23.9184 9.81362 23.2124 7.26721 21.1975C8.49195 17.9068 11.0444 15.189 14.3959 14.0577C17.7465 12.9266 21.1504 13.6326 23.6968 15.6476C22.4721 18.9383 19.9196 21.656 16.5682 22.7874Z" stroke="url(#paint7_linear_3_37)" stroke-opacity="0.05" stroke-width="0.056338"/>
<path d="M29.36 20V5.8H34.42C36.7667 5.8 38.5667 6.42 39.82 7.66C41.0867 8.88667 41.72 10.64 41.72 12.92C41.72 15.1867 41.1 16.9333 39.86 18.16C38.62 19.3867 36.8467 20 34.54 20H29.36ZM32.84 17.16H34.42C35.7 17.16 36.64 16.8133 37.24 16.12C37.84 15.4267 38.14 14.3533 38.14 12.9C38.14 11.4467 37.84 10.3733 37.24 9.68C36.64 8.98667 35.7 8.64 34.42 8.64H32.84V17.16ZM48.9494 20.24C47.816 20.24 46.8227 20.0067 45.9694 19.54C45.1294 19.0733 44.4694 18.42 43.9894 17.58C43.5227 16.74 43.2894 15.7533 43.2894 14.62C43.2894 13.4867 43.5227 12.5 43.9894 11.66C44.4694 10.82 45.1294 10.1667 45.9694 9.7C46.8227 9.23333 47.816 9 48.9494 9C50.0827 9 51.0694 9.23333 51.9094 9.7C52.7494 10.1667 53.4027 10.82 53.8694 11.66C54.3494 12.5 54.5894 13.4867 54.5894 14.62C54.5894 15.7533 54.3494 16.74 53.8694 17.58C53.4027 18.42 52.7494 19.0733 51.9094 19.54C51.0694 20.0067 50.0827 20.24 48.9494 20.24ZM48.9494 17.7C49.616 17.7 50.1294 17.4333 50.4894 16.9C50.8627 16.3667 51.0494 15.6067 51.0494 14.62C51.0494 13.6467 50.8627 12.8933 50.4894 12.36C50.1294 11.8133 49.616 11.54 48.9494 11.54C48.2694 11.54 47.7427 11.8133 47.3694 12.36C47.0094 12.8933 46.8294 13.6467 46.8294 14.62C46.8294 15.6067 47.0094 16.3667 47.3694 16.9C47.7427 17.4333 48.2694 17.7 48.9494 17.7ZM56.2903 20V9.24H59.3703L59.5103 12.54L59.0903 12.46C59.1836 11.6067 59.3903 10.9267 59.7103 10.42C60.0436 9.91333 60.457 9.55333 60.9503 9.34C61.4436 9.11333 61.9903 9 62.5903 9C63.3503 9 64.0036 9.16667 64.5503 9.5C65.1103 9.82 65.537 10.2867 65.8303 10.9C66.1236 11.5 66.2703 12.2267 66.2703 13.08V20H62.8303V14.26C62.8303 13.7133 62.7903 13.2467 62.7103 12.86C62.6303 12.4733 62.4836 12.18 62.2703 11.98C62.0703 11.78 61.777 11.68 61.3903 11.68C60.8303 11.68 60.4103 11.9067 60.1303 12.36C59.8636 12.8 59.7303 13.4333 59.7303 14.26V20H56.2903ZM73.4988 20.24C72.3788 20.24 71.3988 20.0067 70.5588 19.54C69.7188 19.0733 69.0654 18.42 68.5988 17.58C68.1321 16.74 67.8988 15.7533 67.8988 14.62C67.8988 13.4867 68.1321 12.5067 68.5988 11.68C69.0654 10.84 69.7121 10.1867 70.5388 9.72C71.3788 9.24 72.3588 9 73.4788 9C74.5988 9 75.5654 9.24 76.3788 9.72C77.2054 10.1867 77.8388 10.86 78.2788 11.74C78.7188 12.62 78.9388 13.6667 78.9388 14.88V15.52H71.4588C71.4988 16.2667 71.7054 16.8267 72.0788 17.2C72.4654 17.56 72.9588 17.74 73.5588 17.74C74.0121 17.74 74.3921 17.6533 74.6988 17.48C75.0054 17.2933 75.2254 16.9933 75.3588 16.58L78.7988 16.78C78.5054 17.9 77.8854 18.76 76.9388 19.36C75.9921 19.9467 74.8454 20.24 73.4988 20.24ZM71.4588 13.56H75.4588C75.4321 12.8533 75.2388 12.3267 74.8788 11.98C74.5188 11.62 74.0521 11.44 73.4788 11.44C72.9321 11.44 72.4721 11.6267 72.0988 12C71.7388 12.3733 71.5254 12.8933 71.4588 13.56Z" fill="#001E13"/>
<path d="M89.0361 20.32C87.9028 20.32 86.9428 20.02 86.1561 19.42C85.3694 18.82 84.7694 17.9667 84.3561 16.86C83.9561 15.7533 83.7561 14.44 83.7561 12.92C83.7561 11.3867 83.9561 10.0667 84.3561 8.96C84.7694 7.85333 85.3694 7 86.1561 6.4C86.9428 5.78667 87.9028 5.48 89.0361 5.48C90.2894 5.48 91.3561 5.89333 92.2361 6.72C93.1161 7.53333 93.7028 8.67333 93.9961 10.14L92.1561 10.26C91.9294 9.23333 91.5361 8.46 90.9761 7.94C90.4294 7.42 89.7828 7.16 89.0361 7.16C88.2761 7.16 87.6361 7.38667 87.1161 7.84C86.6094 8.28 86.2228 8.93333 85.9561 9.8C85.6894 10.6533 85.5561 11.6933 85.5561 12.92C85.5561 14.1333 85.6894 15.1667 85.9561 16.02C86.2228 16.8733 86.6094 17.5267 87.1161 17.98C87.6361 18.42 88.2761 18.64 89.0361 18.64C89.8628 18.64 90.5628 18.3533 91.1361 17.78C91.7094 17.2067 92.0961 16.3533 92.2961 15.22L94.1161 15.32C93.8628 16.88 93.2894 18.1067 92.3961 19C91.5028 19.88 90.3828 20.32 89.0361 20.32ZM99.2483 20.24C98.1949 20.24 97.3549 19.8867 96.7283 19.18C96.1016 18.46 95.7883 17.4733 95.7883 16.22V9.4H97.4683V15.76C97.4683 16.7867 97.6483 17.5467 98.0083 18.04C98.3816 18.52 98.9483 18.76 99.7083 18.76C100.535 18.76 101.188 18.4933 101.668 17.96C102.148 17.4133 102.388 16.6667 102.388 15.72V9.4H104.068V20H102.468V17.38L102.728 17.52C102.515 18.3867 102.108 19.06 101.508 19.54C100.908 20.0067 100.155 20.24 99.2483 20.24ZM110.44 20V8.64C110.44 8.21333 110.32 7.88 110.08 7.64C109.84 7.4 109.507 7.28 109.08 7.28H106.58V5.8H109.16C110.134 5.8 110.867 6.05333 111.36 6.56C111.867 7.05333 112.12 7.78667 112.12 8.76V20H110.44ZM106.18 20V18.52H115.78V20H106.18ZM123.533 20C122.506 20 121.739 19.76 121.233 19.28C120.726 18.8 120.473 18.0667 120.473 17.08V6.92H122.153V17.08C122.153 17.5733 122.266 17.94 122.493 18.18C122.719 18.4067 123.066 18.52 123.533 18.52H126.373V20H123.533ZM116.973 10.88V9.4H126.373V10.88H116.973ZM132.225 20.24C131.172 20.24 130.332 19.8867 129.705 19.18C129.078 18.46 128.765 17.4733 128.765 16.22V9.4H130.445V15.76C130.445 16.7867 130.625 17.5467 130.985 18.04C131.358 18.52 131.925 18.76 132.685 18.76C133.512 18.76 134.165 18.4933 134.645 17.96C135.125 17.4133 135.365 16.6667 135.365 15.72V9.4H137.045V20H135.445V17.38L135.705 17.52C135.492 18.3867 135.085 19.06 134.485 19.54C133.885 20.0067 133.132 20.24 132.225 20.24ZM142.517 20V9.4H143.917L144.077 12.08L143.917 12.04C144.05 11.1333 144.337 10.4667 144.777 10.04C145.23 9.61333 145.83 9.4 146.577 9.4H148.757V10.92H146.597C146.077 10.92 145.637 11.0267 145.277 11.24C144.93 11.44 144.664 11.74 144.477 12.14C144.29 12.5267 144.197 13.0133 144.197 13.6V20H142.517ZM139.757 20V18.52H147.557V20H139.757ZM139.757 10.88V9.4H143.437V10.88H139.757ZM155.129 20.24C154.129 20.24 153.263 20.0133 152.529 19.56C151.809 19.1067 151.249 18.4667 150.849 17.64C150.463 16.8 150.269 15.82 150.269 14.7C150.269 13.58 150.463 12.6067 150.849 11.78C151.249 10.9533 151.803 10.3133 152.509 9.86C153.229 9.39333 154.076 9.16 155.049 9.16C155.969 9.16 156.783 9.38 157.489 9.82C158.196 10.2467 158.749 10.8733 159.149 11.7C159.549 12.5267 159.749 13.5333 159.749 14.72V15.22H152.029C152.096 16.3533 152.396 17.2067 152.929 17.78C153.476 18.3533 154.209 18.64 155.129 18.64C155.823 18.64 156.389 18.48 156.829 18.16C157.283 17.8267 157.596 17.3933 157.769 16.86L159.569 17C159.289 17.9467 158.756 18.7267 157.969 19.34C157.196 19.94 156.249 20.24 155.129 20.24ZM152.029 13.74H157.909C157.829 12.7133 157.529 11.96 157.009 11.48C156.489 11 155.836 10.76 155.049 10.76C154.236 10.76 153.563 11.0133 153.029 11.52C152.509 12.0133 152.176 12.7533 152.029 13.74Z" fill="#001E13"/>
</g>
<defs>
<radialGradient id="paint0_radial_3_37" cx="0" cy="0" r="1" gradientUnits="userSpaceOnUse" gradientTransform="translate(-3.00504 15.023) rotate(-10.029) scale(17.9572 17.784)">
<stop stop-color="#00B0BB"/>
<stop offset="1" stop-color="#00DB65"/>
</radialGradient>
<linearGradient id="paint1_linear_3_37" x1="7.39035" y1="4.81308" x2="1.62974" y2="18.6894" gradientUnits="userSpaceOnUse">
<stop stop-color="#18E299"/>
<stop offset="1"/>
</linearGradient>
<linearGradient id="paint2_linear_3_37" x1="7.94816" y1="8.01562" x2="1.7612" y2="18.746" gradientUnits="userSpaceOnUse">
<stop/>
<stop offset="1" stop-opacity="0"/>
</linearGradient>
<radialGradient id="paint3_radial_3_37" cx="0" cy="0" r="1" gradientUnits="userSpaceOnUse" gradientTransform="translate(8.11404 20.8822) rotate(-75.7542) scale(21.6246 23.7772)">
<stop stop-color="#00BBBB"/>
<stop offset="0.712616" stop-color="#00DB65"/>
</radialGradient>
<linearGradient id="paint4_linear_3_37" x1="7.60206" y1="5.8709" x2="15.5561" y2="16.3719" gradientUnits="userSpaceOnUse">
<stop/>
<stop offset="1" stop-opacity="0"/>
</linearGradient>
<radialGradient id="paint5_radial_3_37" cx="0" cy="0" r="1" gradientUnits="userSpaceOnUse" gradientTransform="translate(7.84536 21.5181) rotate(-20.3525) scale(18.5603 17.32)">
<stop stop-color="#00B0BB"/>
<stop offset="1" stop-color="#00DB65"/>
</radialGradient>
<linearGradient id="paint6_linear_3_37" x1="16.8078" y1="13.0071" x2="10.0409" y2="22.9937" gradientUnits="userSpaceOnUse">
<stop stop-color="#00B1BC"/>
<stop offset="1"/>
</linearGradient>
<linearGradient id="paint7_linear_3_37" x1="16.8078" y1="13.0071" x2="14.1687" y2="23.841" gradientUnits="userSpaceOnUse">
<stop/>
<stop offset="1" stop-opacity="0"/>
</linearGradient>
<clipPath id="clip0_3_37">
<rect width="160" height="24" fill="white"/>
</clipPath>
</defs>
</svg>
