<svg width="160" height="24" viewBox="0 0 160 24" fill="none" xmlns="http://www.w3.org/2000/svg">
<g clip-path="url(#clip0_2_2)">
<path d="M7.95342 21.1394C4.89585 21.1304 2.2547 19.458 0.987289 16.2895C-0.280125 13.121 0.108917 9.16314 1.74362 5.61504C4.80119 5.62409 7.44234 7.29648 8.70975 10.465C9.97717 13.6335 9.58813 17.5913 7.95342 21.1394Z" fill="white"/>
<path d="M7.95342 21.1394C4.89585 21.1304 2.2547 19.458 0.987289 16.2895C-0.280125 13.121 0.108917 9.16314 1.74362 5.61504C4.80119 5.62409 7.44234 7.29648 8.70975 10.465C9.97717 13.6335 9.58813 17.5913 7.95342 21.1394Z" fill="url(#paint0_radial_2_2)"/>
<g style="mix-blend-mode:hard-light">
<path d="M7.95342 21.1394C4.89585 21.1304 2.2547 19.458 0.987289 16.2895C-0.280125 13.121 0.108917 9.16314 1.74362 5.61504C4.80119 5.62409 7.44234 7.29648 8.70975 10.465C9.97717 13.6335 9.58813 17.5913 7.95342 21.1394Z" fill="black" fill-opacity="0.5"/>
</g>
<path style="mix-blend-mode:hard-light" d="M7.95342 21.1394C4.89585 21.1304 2.2547 19.458 0.987289 16.2895C-0.280125 13.121 0.108917 9.16314 1.74362 5.61504C4.80119 5.62409 7.44234 7.29648 8.70975 10.465C9.97717 13.6335 9.58813 17.5913 7.95342 21.1394Z" fill="url(#paint1_linear_2_2)" fill-opacity="0.5"/>
<path d="M7.9354 21.1112C4.89702 21.0957 2.27411 19.4306 1.01347 16.279C-0.248373 13.1244 0.135614 9.18218 1.76165 5.64327C4.80004 5.65882 7.42295 7.32385 8.68359 10.4755C9.94543 13.63 9.56144 17.5723 7.9354 21.1112Z" stroke="url(#paint2_linear_2_2)" stroke-opacity="0.05" stroke-width="0.056338"/>
<path d="M7.31038 21.2574C11.3543 20.2215 14.8836 17.3754 16.6285 13.2361C18.3735 9.09671 17.9448 4.58749 15.8598 0.976292C11.8159 2.01214 8.2866 4.85826 6.54167 8.99762C4.79674 13.137 5.2254 17.6462 7.31038 21.2574Z" fill="white"/>
<path d="M7.31038 21.2574C11.3543 20.2215 14.8836 17.3754 16.6285 13.2361C18.3735 9.09671 17.9448 4.58749 15.8598 0.976292C11.8159 2.01214 8.2866 4.85826 6.54167 8.99762C4.79674 13.137 5.2254 17.6462 7.31038 21.2574Z" fill="url(#paint3_radial_2_2)"/>
<path d="M16.6025 13.2251C14.8642 17.349 11.3512 20.1866 7.32412 21.2248C5.25258 17.624 4.82927 13.1324 6.56765 9.00855C8.30604 4.88472 11.819 2.04706 15.8461 1.00889C17.9176 4.60967 18.3409 9.10131 16.6025 13.2251Z" stroke="url(#paint4_linear_2_2)" stroke-opacity="0.05" stroke-width="0.056338"/>
<path d="M7.23367 21.2069C9.78905 23.2373 13.2102 23.9506 16.5772 22.8141C19.9441 21.6775 22.5058 18.9445 23.7304 15.6382C21.175 13.6078 17.7538 12.8944 14.3869 14.031C11.0199 15.1676 8.45821 17.9006 7.23367 21.2069Z" fill="white"/>
<path d="M7.23367 21.2069C9.78905 23.2373 13.2102 23.9506 16.5772 22.8141C19.9441 21.6775 22.5058 18.9445 23.7304 15.6382C21.175 13.6078 17.7538 12.8944 14.3869 14.031C11.0199 15.1676 8.45821 17.9006 7.23367 21.2069Z" fill="url(#paint5_radial_2_2)"/>
<g style="mix-blend-mode:hard-light">
<path d="M7.23367 21.2069C9.78905 23.2373 13.2102 23.9506 16.5772 22.8141C19.9441 21.6775 22.5058 18.9445 23.7304 15.6382C21.175 13.6078 17.7538 12.8944 14.3869 14.031C11.0199 15.1676 8.45821 17.9006 7.23367 21.2069Z" fill="black" fill-opacity="0.2"/>
</g>
<path style="mix-blend-mode:hard-light" d="M7.23367 21.2069C9.78905 23.2373 13.2102 23.9506 16.5772 22.8141C19.9441 21.6775 22.5058 18.9445 23.7304 15.6382C21.175 13.6078 17.7538 12.8944 14.3869 14.031C11.0199 15.1676 8.45821 17.9006 7.23367 21.2069Z" fill="url(#paint6_linear_2_2)" fill-opacity="0.5"/>
<path d="M16.5682 22.7874C13.2176 23.9184 9.81362 23.2124 7.26721 21.1975C8.49195 17.9068 11.0444 15.189 14.3959 14.0577C17.7465 12.9266 21.1504 13.6326 23.6968 15.6476C22.4721 18.9383 19.9196 21.656 16.5682 22.7874Z" stroke="url(#paint7_linear_2_2)" stroke-opacity="0.05" stroke-width="0.056338"/>
<path d="M28.36 20V5.8H33.42C35.7667 5.8 37.5667 6.42 38.82 7.66C40.0867 8.88667 40.72 10.64 40.72 12.92C40.72 15.1867 40.1 16.9333 38.86 18.16C37.62 19.3867 35.8467 20 33.54 20H28.36ZM31.84 17.16H33.42C34.7 17.16 35.64 16.8133 36.24 16.12C36.84 15.4267 37.14 14.3533 37.14 12.9C37.14 11.4467 36.84 10.3733 36.24 9.68C35.64 8.98667 34.7 8.64 33.42 8.64H31.84V17.16ZM47.9494 20.24C46.816 20.24 45.8227 20.0067 44.9694 19.54C44.1294 19.0733 43.4694 18.42 42.9894 17.58C42.5227 16.74 42.2894 15.7533 42.2894 14.62C42.2894 13.4867 42.5227 12.5 42.9894 11.66C43.4694 10.82 44.1294 10.1667 44.9694 9.7C45.8227 9.23333 46.816 9 47.9494 9C49.0827 9 50.0694 9.23333 50.9094 9.7C51.7494 10.1667 52.4027 10.82 52.8694 11.66C53.3494 12.5 53.5894 13.4867 53.5894 14.62C53.5894 15.7533 53.3494 16.74 52.8694 17.58C52.4027 18.42 51.7494 19.0733 50.9094 19.54C50.0694 20.0067 49.0827 20.24 47.9494 20.24ZM47.9494 17.7C48.616 17.7 49.1294 17.4333 49.4894 16.9C49.8627 16.3667 50.0494 15.6067 50.0494 14.62C50.0494 13.6467 49.8627 12.8933 49.4894 12.36C49.1294 11.8133 48.616 11.54 47.9494 11.54C47.2694 11.54 46.7427 11.8133 46.3694 12.36C46.0094 12.8933 45.8294 13.6467 45.8294 14.62C45.8294 15.6067 46.0094 16.3667 46.3694 16.9C46.7427 17.4333 47.2694 17.7 47.9494 17.7ZM55.2903 20V9.24H58.3703L58.5103 12.54L58.0903 12.46C58.1836 11.6067 58.3903 10.9267 58.7103 10.42C59.0436 9.91333 59.457 9.55333 59.9503 9.34C60.4436 9.11333 60.9903 9 61.5903 9C62.3503 9 63.0036 9.16667 63.5503 9.5C64.1103 9.82 64.537 10.2867 64.8303 10.9C65.1236 11.5 65.2703 12.2267 65.2703 13.08V20H61.8303V14.26C61.8303 13.7133 61.7903 13.2467 61.7103 12.86C61.6303 12.4733 61.4836 12.18 61.2703 11.98C61.0703 11.78 60.777 11.68 60.3903 11.68C59.8303 11.68 59.4103 11.9067 59.1303 12.36C58.8636 12.8 58.7303 13.4333 58.7303 14.26V20H55.2903ZM72.4988 20.24C71.3788 20.24 70.3988 20.0067 69.5588 19.54C68.7188 19.0733 68.0654 18.42 67.5988 17.58C67.1321 16.74 66.8988 15.7533 66.8988 14.62C66.8988 13.4867 67.1321 12.5067 67.5988 11.68C68.0654 10.84 68.7121 10.1867 69.5388 9.72C70.3788 9.24 71.3588 9 72.4788 9C73.5988 9 74.5654 9.24 75.3788 9.72C76.2054 10.1867 76.8388 10.86 77.2788 11.74C77.7188 12.62 77.9388 13.6667 77.9388 14.88V15.52H70.4588C70.4988 16.2667 70.7054 16.8267 71.0788 17.2C71.4654 17.56 71.9588 17.74 72.5588 17.74C73.0121 17.74 73.3921 17.6533 73.6988 17.48C74.0054 17.2933 74.2254 16.9933 74.3588 16.58L77.7988 16.78C77.5054 17.9 76.8854 18.76 75.9388 19.36C74.9921 19.9467 73.8454 20.24 72.4988 20.24ZM70.4588 13.56H74.4588C74.4321 12.8533 74.2388 12.3267 73.8788 11.98C73.5188 11.62 73.0521 11.44 72.4788 11.44C71.9321 11.44 71.4721 11.6267 71.0988 12C70.7388 12.3733 70.5254 12.8933 70.4588 13.56Z" fill="white"/>
<path d="M88.0361 20.32C86.9028 20.32 85.9428 20.02 85.1561 19.42C84.3694 18.82 83.7694 17.9667 83.3561 16.86C82.9561 15.7533 82.7561 14.44 82.7561 12.92C82.7561 11.3867 82.9561 10.0667 83.3561 8.96C83.7694 7.85333 84.3694 7 85.1561 6.4C85.9428 5.78667 86.9028 5.48 88.0361 5.48C89.2894 5.48 90.3561 5.89333 91.2361 6.72C92.1161 7.53333 92.7028 8.67333 92.9961 10.14L91.1561 10.26C90.9294 9.23333 90.5361 8.46 89.9761 7.94C89.4294 7.42 88.7828 7.16 88.0361 7.16C87.2761 7.16 86.6361 7.38667 86.1161 7.84C85.6094 8.28 85.2228 8.93333 84.9561 9.8C84.6894 10.6533 84.5561 11.6933 84.5561 12.92C84.5561 14.1333 84.6894 15.1667 84.9561 16.02C85.2228 16.8733 85.6094 17.5267 86.1161 17.98C86.6361 18.42 87.2761 18.64 88.0361 18.64C88.8628 18.64 89.5628 18.3533 90.1361 17.78C90.7094 17.2067 91.0961 16.3533 91.2961 15.22L93.1161 15.32C92.8628 16.88 92.2894 18.1067 91.3961 19C90.5028 19.88 89.3828 20.32 88.0361 20.32ZM98.2483 20.24C97.1949 20.24 96.3549 19.8867 95.7283 19.18C95.1016 18.46 94.7883 17.4733 94.7883 16.22V9.4H96.4683V15.76C96.4683 16.7867 96.6483 17.5467 97.0083 18.04C97.3816 18.52 97.9483 18.76 98.7083 18.76C99.5349 18.76 100.188 18.4933 100.668 17.96C101.148 17.4133 101.388 16.6667 101.388 15.72V9.4H103.068V20H101.468V17.38L101.728 17.52C101.515 18.3867 101.108 19.06 100.508 19.54C99.9083 20.0067 99.1549 20.24 98.2483 20.24ZM109.44 20V8.64C109.44 8.21333 109.32 7.88 109.08 7.64C108.84 7.4 108.507 7.28 108.08 7.28H105.58V5.8H108.16C109.134 5.8 109.867 6.05333 110.36 6.56C110.867 7.05333 111.12 7.78667 111.12 8.76V20H109.44ZM105.18 20V18.52H114.78V20H105.18ZM122.533 20C121.506 20 120.739 19.76 120.233 19.28C119.726 18.8 119.473 18.0667 119.473 17.08V6.92H121.153V17.08C121.153 17.5733 121.266 17.94 121.493 18.18C121.719 18.4067 122.066 18.52 122.533 18.52H125.373V20H122.533ZM115.973 10.88V9.4H125.373V10.88H115.973ZM131.225 20.24C130.172 20.24 129.332 19.8867 128.705 19.18C128.078 18.46 127.765 17.4733 127.765 16.22V9.4H129.445V15.76C129.445 16.7867 129.625 17.5467 129.985 18.04C130.358 18.52 130.925 18.76 131.685 18.76C132.512 18.76 133.165 18.4933 133.645 17.96C134.125 17.4133 134.365 16.6667 134.365 15.72V9.4H136.045V20H134.445V17.38L134.705 17.52C134.492 18.3867 134.085 19.06 133.485 19.54C132.885 20.0067 132.132 20.24 131.225 20.24ZM141.517 20V9.4H142.917L143.077 12.08L142.917 12.04C143.05 11.1333 143.337 10.4667 143.777 10.04C144.23 9.61333 144.83 9.4 145.577 9.4H147.757V10.92H145.597C145.077 10.92 144.637 11.0267 144.277 11.24C143.93 11.44 143.664 11.74 143.477 12.14C143.29 12.5267 143.197 13.0133 143.197 13.6V20H141.517ZM138.757 20V18.52H146.557V20H138.757ZM138.757 10.88V9.4H142.437V10.88H138.757ZM154.129 20.24C153.129 20.24 152.263 20.0133 151.529 19.56C150.809 19.1067 150.249 18.4667 149.849 17.64C149.463 16.8 149.269 15.82 149.269 14.7C149.269 13.58 149.463 12.6067 149.849 11.78C150.249 10.9533 150.803 10.3133 151.509 9.86C152.229 9.39333 153.076 9.16 154.049 9.16C154.969 9.16 155.783 9.38 156.489 9.82C157.196 10.2467 157.749 10.8733 158.149 11.7C158.549 12.5267 158.749 13.5333 158.749 14.72V15.22H151.029C151.096 16.3533 151.396 17.2067 151.929 17.78C152.476 18.3533 153.209 18.64 154.129 18.64C154.823 18.64 155.389 18.48 155.829 18.16C156.283 17.8267 156.596 17.3933 156.769 16.86L158.569 17C158.289 17.9467 157.756 18.7267 156.969 19.34C156.196 19.94 155.249 20.24 154.129 20.24ZM151.029 13.74H156.909C156.829 12.7133 156.529 11.96 156.009 11.48C155.489 11 154.836 10.76 154.049 10.76C153.236 10.76 152.563 11.0133 152.029 11.52C151.509 12.0133 151.176 12.7533 151.029 13.74Z" fill="#9A9A9A"/>
</g>
<defs>
<radialGradient id="paint0_radial_2_2" cx="0" cy="0" r="1" gradientUnits="userSpaceOnUse" gradientTransform="translate(-3.00504 15.023) rotate(-10.029) scale(17.9572 17.784)">
<stop stop-color="#00B0BB"/>
<stop offset="1" stop-color="#00DB65"/>
</radialGradient>
<linearGradient id="paint1_linear_2_2" x1="7.39035" y1="4.81308" x2="1.62974" y2="18.6894" gradientUnits="userSpaceOnUse">
<stop stop-color="#18E299"/>
<stop offset="1"/>
</linearGradient>
<linearGradient id="paint2_linear_2_2" x1="7.94816" y1="8.01562" x2="1.7612" y2="18.746" gradientUnits="userSpaceOnUse">
<stop/>
<stop offset="1" stop-opacity="0"/>
</linearGradient>
<radialGradient id="paint3_radial_2_2" cx="0" cy="0" r="1" gradientUnits="userSpaceOnUse" gradientTransform="translate(8.11404 20.8822) rotate(-75.7542) scale(21.6246 23.7772)">
<stop stop-color="#00BBBB"/>
<stop offset="0.712616" stop-color="#00DB65"/>
</radialGradient>
<linearGradient id="paint4_linear_2_2" x1="7.60206" y1="5.8709" x2="15.5561" y2="16.3719" gradientUnits="userSpaceOnUse">
<stop/>
<stop offset="1" stop-opacity="0"/>
</linearGradient>
<radialGradient id="paint5_radial_2_2" cx="0" cy="0" r="1" gradientUnits="userSpaceOnUse" gradientTransform="translate(7.84536 21.5181) rotate(-20.3525) scale(18.5603 17.32)">
<stop stop-color="#00B0BB"/>
<stop offset="1" stop-color="#00DB65"/>
</radialGradient>
<linearGradient id="paint6_linear_2_2" x1="16.8078" y1="13.0071" x2="10.0409" y2="22.9937" gradientUnits="userSpaceOnUse">
<stop stop-color="#00B1BC"/>
<stop offset="1"/>
</linearGradient>
<linearGradient id="paint7_linear_2_2" x1="16.8078" y1="13.0071" x2="14.1687" y2="23.841" gradientUnits="userSpaceOnUse">
<stop/>
<stop offset="1" stop-opacity="0"/>
</linearGradient>
<clipPath id="clip0_2_2">
<rect width="160" height="24" fill="white"/>
</clipPath>
</defs>
</svg>
